<svg width="25" height="24" viewBox="0 0 25 24" fill="none" xmlns="http://www.w3.org/2000/svg">
<g id="Solid arrow right sm">
<g id="Vector">
<path d="M12.5 2C13.0523 2 13.5 2.44772 13.5 3L13.5 15.1716C13.6127 15.1317 13.7236 15.0849 13.832 15.0312C14.2361 14.831 14.6453 14.4405 15.7929 13.2929C16.1834 12.9024 16.8166 12.9024 17.2071 13.2929C17.5976 13.6834 17.5976 14.3166 17.2071 14.7071L17.0714 14.8429C16.113 15.8021 15.4581 16.4575 14.7201 16.8232C13.3212 17.5164 11.6788 17.5164 10.2799 16.8232C9.54193 16.4575 8.88702 15.8021 7.92858 14.8429L7.7929 14.7071C7.40237 14.3166 7.40237 13.6834 7.7929 13.2929C8.18342 12.9024 8.81658 12.9024 9.20711 13.2929C10.3547 14.4405 10.7639 14.831 11.168 15.0312C11.2764 15.0849 11.3873 15.1317 11.5 15.1716L11.5 3C11.5 2.44772 11.9477 2 12.5 2Z" fill="white"/>
<path d="M4.5 13C4.5 12.4477 4.05229 12 3.5 12C2.94772 12 2.5 12.4477 2.5 13V14.6428C2.49999 15.7266 2.49998 16.6007 2.55782 17.3086C2.61737 18.0375 2.74318 18.6777 3.04497 19.27C3.52434 20.2108 4.28924 20.9757 5.23005 21.455C5.82234 21.7568 6.46253 21.8826 7.19138 21.9422C7.89926 22 8.77342 22 9.85722 22H15.1428C16.2266 22 17.1007 22 17.8086 21.9422C18.5375 21.8826 19.1777 21.7568 19.77 21.455C20.7108 20.9757 21.4757 20.2108 21.955 19.27C22.2568 18.6777 22.3826 18.0375 22.4422 17.3086C22.5 16.6008 22.5 15.7267 22.5 14.6429V13C22.5 12.4477 22.0523 12 21.5 12C20.9477 12 20.5 12.4477 20.5 13V14.6C20.5 15.7366 20.4992 16.5289 20.4488 17.1458C20.3994 17.7509 20.3072 18.0986 20.173 18.362C19.8854 18.9265 19.4265 19.3854 18.862 19.673C18.5986 19.8072 18.2509 19.8994 17.6458 19.9488C17.0289 19.9992 16.2366 20 15.1 20H9.9C8.7634 20 7.97108 19.9992 7.35424 19.9488C6.74907 19.8994 6.40138 19.8072 6.13803 19.673C5.57354 19.3854 5.1146 18.9265 4.82698 18.362C4.69279 18.0986 4.60062 17.7509 4.55118 17.1458C4.50078 16.5289 4.5 15.7366 4.5 14.6V13Z" fill="white"/>
</g>
</g>
</svg>
